<?xml version="1.0" encoding="UTF-8" standalone="no"?>
<!-- Created with Inkscape (http://www.inkscape.org/) -->

<svg
   width="512"
   height="512"
   viewBox="0 0 512 512"
   version="1.1"
   id="svg1"
   inkscape:version="1.3 (0e150ed6c4, 2023-07-21)"
   sodipodi:docname="favicon.svg"
   xmlns:inkscape="http://www.inkscape.org/namespaces/inkscape"
   xmlns:sodipodi="http://sodipodi.sourceforge.net/DTD/sodipodi-0.dtd"
   xmlns="http://www.w3.org/2000/svg"
   xmlns:svg="http://www.w3.org/2000/svg">
  <sodipodi:namedview
     id="namedview1"
     pagecolor="#ffffff"
     bordercolor="#000000"
     borderopacity="0.25"
     inkscape:showpageshadow="2"
     inkscape:pageopacity="0.0"
     inkscape:pagecheckerboard="0"
     inkscape:deskcolor="#d1d1d1"
     inkscape:document-units="px"
     inkscape:zoom="1.5722656"
     inkscape:cx="245.82361"
     inkscape:cy="226.74286"
     inkscape:window-width="1920"
     inkscape:window-height="1011"
     inkscape:window-x="0"
     inkscape:window-y="0"
     inkscape:window-maximized="1"
     inkscape:current-layer="layer1" />
  <defs
     id="defs1">
    <inkscape:path-effect
       effect="fillet_chamfer"
       id="path-effect6"
       is_visible="true"
       lpeversion="1"
       nodesatellites_param="F,0,0,1,0,10,0,1 @ F,0,0,1,0,10,0,1 @ F,0,0,1,0,10,0,1 @ F,0,0,1,0,10,0,1"
       radius="10"
       unit="px"
       method="auto"
       mode="F"
       chamfer_steps="1"
       flexible="false"
       use_knot_distance="true"
       apply_no_radius="true"
       apply_with_radius="false"
       only_selected="false"
       hide_knots="false" />
    <inkscape:path-effect
       effect="fillet_chamfer"
       id="path-effect5"
       is_visible="true"
       lpeversion="1"
       nodesatellites_param="F,0,0,1,0,25,0,1 @ F,0,0,1,0,25,0,1 @ F,0,0,1,0,25,0,1 @ F,0,0,1,0,25,0,1"
       radius="25"
       unit="px"
       method="auto"
       mode="F"
       chamfer_steps="1"
       flexible="false"
       use_knot_distance="true"
       apply_no_radius="true"
       apply_with_radius="true"
       only_selected="false"
       hide_knots="false" />
    <inkscape:path-effect
       effect="fillet_chamfer"
       id="path-effect4"
       is_visible="true"
       lpeversion="1"
       nodesatellites_param="F,0,0,1,0,10,0,1 @ F,0,0,1,0,10,0,1 @ F,0,0,1,0,10,0,1 @ F,0,0,1,0,10,0,1"
       radius="10"
       unit="px"
       method="auto"
       mode="F"
       chamfer_steps="1"
       flexible="false"
       use_knot_distance="true"
       apply_no_radius="true"
       apply_with_radius="true"
       only_selected="false"
       hide_knots="false" />
    <inkscape:path-effect
       effect="fillet_chamfer"
       id="path-effect3"
       is_visible="true"
       lpeversion="1"
       nodesatellites_param="F,0,0,1,0,10,0,1 @ F,0,0,1,0,10,0,1 @ F,0,0,1,0,10,0,1 @ F,0,0,1,0,10,0,1"
       radius="10"
       unit="px"
       method="auto"
       mode="F"
       chamfer_steps="1"
       flexible="false"
       use_knot_distance="true"
       apply_no_radius="true"
       apply_with_radius="true"
       only_selected="false"
       hide_knots="false" />
  </defs>
  <g
     inkscape:label="Layer 1"
     inkscape:groupmode="layer"
     id="layer1">
    <path
       style="fill:#241c1c;stroke-width:0.763476"
       id="rect6"
       width="416"
       height="20"
       x="-36.913921"
       y="206.71275"
       transform="matrix(0.90630779,-0.42261826,0.50714191,1.0875693,-18.317353,-37.281692)"
       inkscape:path-effect="#path-effect6"
       sodipodi:type="rect"
       d="M -26.913921,206.71275 H 369.08608 a 10,10 45 0 1 10,10 10,10 135 0 1 -10,10 H -26.913921 a 10,10 45 0 1 -10,-10 10,10 135 0 1 10,-10 z" />
    <circle
       style="fill:#f9f9f9;stroke-width:1.19954"
       id="path2-2"
       cx="368"
       cy="320"
       r="96" />
    <path
       style="fill:#004cff;stroke-width:1.01056;fill-opacity:1"
       id="rect1"
       width="448"
       height="256"
       x="32"
       y="192"
       inkscape:path-effect="#path-effect5"
       sodipodi:type="rect"
       d="m 57,192 h 398 a 25,25 45 0 1 25,25 v 206 a 25,25 135 0 1 -25,25 H 57 A 25,25 45 0 1 32,423 V 217 a 25,25 135 0 1 25,-25 z" />
    <circle
       style="fill:#241c1c;stroke-width:1.19954"
       id="path2"
       cx="160"
       cy="320"
       r="96" />
    <path
       style="fill:#241c1c;stroke-width:0.967582"
       id="rect2"
       width="144"
       height="288"
       x="304"
       y="128"
       inkscape:path-effect="#path-effect4"
       sodipodi:type="rect"
       d="m 314,128 h 124 a 10,10 45 0 1 10,10 v 268 a 10,10 135 0 1 -10,10 l -124,0 A 10,10 45 0 1 304,406 V 138 a 10,10 135 0 1 10,-10 z" />
    <path
       style="fill:#f2f2f2;stroke-width:0.8049394;fill-opacity:1;stroke-dasharray:none"
       id="rect3"
       width="112"
       height="256"
       x="320"
       y="144"
       inkscape:path-effect="#path-effect3"
       sodipodi:type="rect"
       d="m 330,144 h 92 a 10,10 45 0 1 10,10 v 236 a 10,10 135 0 1 -10,10 H 330 A 10,10 45 0 1 320,390 V 154 a 10,10 135 0 1 10,-10 z"
       transform="matrix(1.1428571,0,0,1.0625,-53.714286,-17)" />
  </g>
</svg>
